<svg width="400" height="440" viewBox="0 0 400 440" fill="none" xmlns="http://www.w3.org/2000/svg">
<g clip-path="url(#clip0_2_244)">
<path d="M172.454 388.195C102.792 388.506 65.1884 358.637 28.2114 318.058C-8.76554 277.479 -12.741 204.525 57.1 101.59C104.689 31.4502 168.987 16.9621 272.094 43.7116C375.202 70.4612 407.967 172.746 392.778 256.595C377.589 340.444 284.292 387.694 172.454 388.195Z" fill="#FF71C6"/>
<path d="M93.0285 123.439C86.7933 129.07 99.0829 182.644 106.007 208.727L163.164 147.937C153.642 125.679 100.822 116.4 93.0285 123.439Z" fill="white"/>
<path d="M286.02 113.739C292.903 118.557 287.323 173.239 283.673 199.977L219.415 154.566C226.116 131.303 277.111 107.502 286.02 113.739Z" fill="white"/>
<path d="M275.556 127.935C268.645 127.307 255.168 135.873 249.293 140.234L275.807 170.983C278.603 156.895 282.467 128.563 275.556 127.935Z" fill="#FF49B6"/>
<path d="M119.97 133.967C111.464 131.114 105.184 131.947 102.895 134.1C102.144 134.807 102.036 135.906 102.115 136.934C102.3 139.35 103.001 144.969 105.586 156.347C109.366 172.984 111.693 177.157 111.693 177.157L141.78 146.79C138.452 144.481 130.017 137.335 119.97 133.967Z" fill="#FF49B6"/>
<path d="M182.163 126.722C109.761 136.145 91.8176 189.411 113.752 241.779C135.685 294.146 264.566 286.891 282.592 227.363C289.295 205.226 288.681 112.86 182.163 126.722Z" fill="white"/>
<mask id="mask0_2_244" style="mask-type:alpha" maskUnits="userSpaceOnUse" x="105" y="125" width="181" height="152">
<path d="M182.261 126.717C109.859 136.139 91.9163 189.406 113.85 241.774C135.784 294.141 264.664 286.886 282.69 227.358C289.394 205.221 288.779 112.855 182.261 126.717Z" fill="#58FC68"/>
</mask>
<g mask="url(#mask0_2_244)">
<rect x="137.959" y="88.5653" width="38.2306" height="60.6929" rx="13.1993" transform="rotate(-3.07092 137.959 88.5653)" fill="#E4E4E4"/>
<rect x="64.666" y="198.294" width="38.2306" height="60.6929" rx="13.1993" transform="rotate(-43.0637 64.666 198.294)" fill="#E4E4E4"/>
<rect x="292.055" y="161.165" width="38.2306" height="60.6929" rx="13.1993" transform="rotate(33.199 292.055 161.165)" fill="#E4E4E4"/>
<rect x="202.217" y="83.292" width="38.2306" height="60.6929" rx="13.1993" transform="rotate(-3.07092 202.217 83.292)" fill="#E4E4E4"/>
<ellipse cx="198.217" cy="262.104" rx="68.5713" ry="45.8114" transform="rotate(-3.07092 198.217 262.104)" fill="#E4E4E4"/>
</g>
<line x1="187.877" y1="228.791" x2="147.136" y2="221.041" stroke="black" stroke-width="0.659965"/>
<line x1="187.543" y1="232.324" x2="154.815" y2="232.327" stroke="black" stroke-width="0.659965"/>
<line y1="-0.329982" x2="41.4715" y2="-0.329982" transform="matrix(0.956755 -0.290896 -0.290896 -0.956755 204.255 227.591)" stroke="black" stroke-width="0.659965"/>
<line y1="-0.329982" x2="32.7276" y2="-0.329982" transform="matrix(0.994268 -0.106913 -0.106913 -0.994268 205.025 231.056)" stroke="black" stroke-width="0.659965"/>
<circle cx="161.477" cy="191.943" r="22.556" transform="rotate(0.185687 161.477 191.943)" fill="#4017E5"/>
<ellipse cx="161.478" cy="191.943" rx="7.5293" ry="22.556" transform="rotate(0.185687 161.478 191.943)" fill="black"/>
<circle cx="229.188" cy="187.862" r="22.556" transform="rotate(-7.16996 229.188 187.862)" fill="#4017E5"/>
<ellipse cx="228.378" cy="188.011" rx="7.5293" ry="22.556" transform="rotate(-7.16996 228.378 188.011)" fill="black"/>
<circle cx="168.706" cy="182.535" r="5.09973" transform="rotate(18.199 168.706 182.535)" fill="white"/>
<circle cx="235.336" cy="177.346" r="5.09973" transform="rotate(18.199 235.336 177.346)" fill="white"/>
<circle cx="161.393" cy="189.794" r="3.05984" transform="rotate(18.199 161.393 189.794)" fill="white"/>
<circle cx="230.04" cy="185.963" r="3.05984" transform="rotate(18.199 230.04 185.963)" fill="white"/>
<path fill-rule="evenodd" clip-rule="evenodd" d="M202.658 241.801C200.966 243.029 198.882 243.751 196.631 243.743C195.051 243.738 193.556 243.375 192.223 242.73C193.44 241.928 194.246 240.551 194.251 238.984C194.259 236.498 192.25 234.477 189.765 234.469C188.572 234.465 187.486 234.926 186.678 235.681C186.527 234.977 186.449 234.247 186.452 233.498C186.47 227.857 191.057 223.3 196.697 223.318C202.338 223.336 206.895 227.923 206.877 233.564C206.877 233.682 206.874 233.8 206.87 233.918C206.143 233.408 205.258 233.108 204.303 233.104C201.817 233.096 199.796 235.105 199.788 237.59C199.782 239.506 200.973 241.146 202.658 241.801Z" fill="#FF49B6"/>
<path d="M181.55 251.017L212.436 249.36C212.781 255.797 207.843 261.295 201.406 261.641L193.831 262.047C187.394 262.392 181.896 257.454 181.55 251.017Z" fill="#FF49B6"/>
<mask id="mask1_2_244" style="mask-type:alpha" maskUnits="userSpaceOnUse" x="181" y="249" width="32" height="14">
<path d="M181.55 251.017L212.436 249.36C212.781 255.797 207.843 261.295 201.406 261.641L193.831 262.047C187.394 262.392 181.896 257.454 181.55 251.017Z" fill="#FF49B6"/>
</mask>
<g mask="url(#mask1_2_244)">
<ellipse cx="201.406" cy="261.641" rx="12.2553" ry="8.17019" transform="rotate(-3.07092 201.406 261.641)" fill="#FFC8D2"/>
</g>
<path d="M174.943 429.297H177.745C178.383 429.29 178.986 429.193 179.552 429.004C180.125 428.815 180.626 428.542 181.056 428.184C181.486 427.826 181.824 427.386 182.071 426.865C182.325 426.338 182.452 425.732 182.452 425.049C182.452 424.365 182.325 423.76 182.071 423.232C181.824 422.705 181.486 422.262 181.056 421.904C180.626 421.546 180.125 421.273 179.552 421.084C178.986 420.895 178.383 420.794 177.745 420.781H173.136V435H174.943V429.297ZM174.943 427.812V422.266H177.745C178.162 422.272 178.546 422.34 178.898 422.471C179.256 422.601 179.565 422.786 179.825 423.027C180.079 423.268 180.278 423.561 180.421 423.906C180.571 424.251 180.646 424.639 180.646 425.068C180.646 425.498 180.571 425.882 180.421 426.221C180.278 426.553 180.076 426.836 179.816 427.07C179.555 427.305 179.249 427.487 178.898 427.617C178.546 427.741 178.162 427.806 177.745 427.812H174.943ZM184.865 424.434V426.006H188.459V433.438H184.865V435H193.712V433.438H190.265V424.434H184.865ZM188.224 421.66C188.224 421.953 188.312 422.197 188.488 422.393C188.67 422.588 188.944 422.686 189.308 422.686C189.666 422.686 189.936 422.588 190.119 422.393C190.301 422.197 190.392 421.953 190.392 421.66C190.392 421.497 190.366 421.348 190.314 421.211C190.262 421.074 190.184 420.96 190.08 420.869C189.995 420.785 189.888 420.719 189.757 420.674C189.627 420.622 189.477 420.596 189.308 420.596C189.139 420.596 188.986 420.622 188.849 420.674C188.719 420.719 188.612 420.785 188.527 420.869C188.423 420.967 188.345 421.084 188.293 421.221C188.247 421.357 188.224 421.504 188.224 421.66ZM196.193 435H198V427.422C198.124 427.194 198.267 426.986 198.43 426.797C198.599 426.608 198.781 426.442 198.977 426.299C199.217 426.136 199.481 426.009 199.768 425.918C200.054 425.82 200.363 425.771 200.695 425.771C201.079 425.771 201.418 425.817 201.711 425.908C202.01 425.999 202.264 426.146 202.473 426.348C202.674 426.549 202.827 426.813 202.932 427.139C203.036 427.464 203.088 427.861 203.088 428.33V435H204.895V428.291C204.895 427.588 204.807 426.982 204.631 426.475C204.462 425.96 204.217 425.537 203.898 425.205C203.579 424.873 203.192 424.629 202.736 424.473C202.287 424.316 201.786 424.238 201.232 424.238C200.822 424.245 200.432 424.307 200.061 424.424C199.696 424.535 199.357 424.694 199.045 424.902C198.837 425.039 198.638 425.202 198.449 425.391C198.267 425.573 198.098 425.775 197.941 425.996L197.814 424.434H196.193V435ZM210.969 430.068L214.846 435H217.141L212.209 428.838L216.487 424.434H214.289L210.823 427.91L209.641 429.18V420H207.825V435H209.641V431.348L210.969 430.068ZM226.38 435H228.02V424.434H226.204V432.012C226.106 432.24 225.983 432.451 225.833 432.646C225.69 432.835 225.52 432.998 225.325 433.135C225.091 433.304 224.814 433.438 224.495 433.535C224.176 433.626 223.815 433.672 223.411 433.672C223.066 433.672 222.76 433.626 222.493 433.535C222.233 433.444 222.011 433.285 221.829 433.057C221.647 432.835 221.51 432.536 221.419 432.158C221.328 431.781 221.282 431.305 221.282 430.732V424.434H219.475V430.713C219.475 431.501 219.56 432.178 219.729 432.744C219.905 433.304 220.152 433.766 220.471 434.131C220.79 434.495 221.175 434.766 221.624 434.941C222.073 435.111 222.574 435.195 223.128 435.195C223.818 435.195 224.427 435.052 224.954 434.766C225.481 434.473 225.921 434.066 226.272 433.545L226.38 435Z" fill="black"/>
</g>
<defs>
<clipPath id="clip0_2_244">
<rect width="400" height="440" fill="white"/>
</clipPath>
</defs>
</svg>
