<svg width="400" height="440" viewBox="0 0 400 440" fill="none" xmlns="http://www.w3.org/2000/svg">
<g clip-path="url(#clip0_2_243)">
<path d="M182.129 31.851C252.566 31.851 335.859 32.2744 373.063 73.4717C410.268 114.669 402.892 235.792 373.063 295.622C334.824 372.321 235.276 406.896 131.144 379.383C27.011 351.87 -10.4959 282.006 5.24102 197.293C20.9779 112.58 69.0449 31.8511 182.129 31.851Z" fill="#7B78FC"/>
<path d="M104.098 98.5444C95.1801 103.228 93.4992 169.105 93.7735 201.459L178.255 147.881C173.824 119.196 115.246 92.6904 104.098 98.5444Z" fill="#FFD952"/>
<path d="M331.117 144.749C337.676 152.394 314.913 214.237 302.712 244.203L241.609 172.33C256.318 147.309 322.628 134.853 331.117 144.749Z" fill="#FFD952"/>
<path d="M314.738 158.119C306.899 155.332 288.697 161.266 280.576 164.582L302.212 208.188C309.654 192.66 322.577 160.906 314.738 158.119Z" fill="#FC7890"/>
<path d="M132.254 118.794C123.606 113.195 116.324 112.131 112.825 113.648C111.391 114.27 110.806 115.863 110.552 117.405C110.04 120.509 109.25 127.25 108.884 140.501C108.319 160.949 109.78 166.488 109.78 166.488L153.763 140.181C150.586 136.507 142.918 125.698 132.254 118.794Z" fill="#FC7890"/>
<path d="M206.637 128.9C119.747 118.283 83.0469 174.801 92.9257 242.149C102.805 309.498 254.64 339.451 293.301 275.686C307.678 251.973 334.469 144.52 206.637 128.9Z" fill="#FF8A00"/>
<mask id="mask0_2_243" style="mask-type:alpha" maskUnits="userSpaceOnUse" x="91" y="127" width="216" height="184">
<path d="M206.753 128.923C119.863 118.306 83.1631 174.824 93.042 242.173C102.921 309.521 254.757 339.474 293.417 275.709C307.794 251.996 334.586 144.543 206.753 128.923Z" fill="#FF8D00"/>
</mask>
<g mask="url(#mask0_2_243)">
<rect x="211.726" y="116.092" width="24.4885" height="72.7659" rx="12.2443" transform="rotate(11.3104 211.726 116.092)" fill="#FCB358"/>
<rect x="58.7812" y="221.649" width="8.73208" height="72.7659" rx="4.36604" transform="rotate(-108.69 58.7812 221.649)" fill="#FCB358"/>
<rect x="49.8623" y="241.271" width="8.73208" height="72.7659" rx="4.36604" transform="rotate(-108.69 49.8623 241.271)" fill="#FCB358"/>
<rect x="59.6045" y="256.777" width="8.73208" height="72.7659" rx="4.36604" transform="rotate(-108.69 59.6045 256.777)" fill="#FCB358"/>
<rect width="8.73208" height="72.7659" rx="4.36604" transform="matrix(0.660139 -0.751144 -0.751144 -0.660139 332.41 276.377)" fill="#FCB358"/>
<rect width="8.73208" height="72.7659" rx="4.36604" transform="matrix(0.660139 -0.751144 -0.751144 -0.660139 333.097 297.92)" fill="#FCB358"/>
<rect width="8.73208" height="72.7659" rx="4.36604" transform="matrix(0.660139 -0.751144 -0.751144 -0.660139 318.139 308.486)" fill="#FCB358"/>
<rect x="243.972" y="122.542" width="24.4885" height="45.4787" rx="12.2443" transform="rotate(11.3104 243.972 122.542)" fill="#FCB358"/>
<rect x="179.479" y="109.642" width="24.4885" height="45.4787" rx="12.2443" transform="rotate(11.3104 179.479 109.642)" fill="#FCB358"/>
<ellipse cx="184.967" cy="290.906" rx="82.2115" ry="54.9243" transform="rotate(11.3104 184.967 290.906)" fill="#FFD952"/>
</g>
<line x1="182.834" y1="249.233" x2="137.827" y2="228.102" stroke="black"/>
<line x1="181.413" y1="253.244" x2="143.404" y2="243.502" stroke="black"/>
<line y1="-0.5" x2="49.7211" y2="-0.5" transform="matrix(0.999025 -0.0441468 -0.0441468 -0.999025 202.257 252.623)" stroke="black"/>
<line y1="-0.5" x2="39.2378" y2="-0.5" transform="matrix(0.989667 0.143388 0.143388 -0.989667 202.12 256.877)" stroke="black"/>
<circle cx="163.192" cy="198.485" r="27.0429" transform="rotate(14.5671 163.192 198.485)" fill="#63EF71"/>
<ellipse cx="163.192" cy="198.485" rx="9.02703" ry="27.0429" transform="rotate(14.5671 163.192 198.485)" fill="black"/>
<circle cx="243.044" cy="213.908" r="27.0429" transform="rotate(7.21141 243.044 213.908)" fill="#63EF71"/>
<ellipse cx="242.057" cy="213.84" rx="9.02703" ry="27.0429" transform="rotate(7.21141 242.057 213.84)" fill="black"/>
<circle cx="155.11" cy="192.569" r="6.17516" fill="white"/>
<circle cx="234.826" cy="204.919" r="6.17516" fill="white"/>
<circle cx="158.477" cy="203.796" r="3.92965" fill="white"/>
<circle cx="238.193" cy="216.146" r="3.92965" fill="white"/>
<path fill-rule="evenodd" clip-rule="evenodd" d="M196.17 268.649C193.839 269.572 191.205 269.79 188.592 269.111C186.759 268.634 185.131 267.767 183.775 266.621C185.428 266.053 186.773 264.693 187.246 262.874C187.995 259.99 186.265 257.045 183.381 256.295C181.996 255.936 180.597 256.147 179.434 256.784C179.469 255.922 179.595 255.05 179.821 254.181C181.522 247.636 188.207 243.709 194.751 245.41C201.296 247.11 205.223 253.795 203.523 260.34C203.487 260.477 203.449 260.614 203.409 260.749C202.716 259.94 201.778 259.328 200.67 259.04C197.786 258.29 194.84 260.021 194.091 262.905C193.513 265.128 194.409 267.387 196.17 268.649Z" fill="#FC7890"/>
<path d="M168.913 273.068L205.276 280.341C203.76 287.919 196.388 292.834 188.809 291.318L179.89 289.534C172.312 288.018 167.397 280.646 168.913 273.068Z" fill="#FC7890"/>
<mask id="mask1_2_243" style="mask-type:alpha" maskUnits="userSpaceOnUse" x="168" y="273" width="38" height="19">
<path d="M168.913 273.068L205.276 280.341C203.76 287.919 196.388 292.834 188.809 291.318L179.89 289.534C172.312 288.018 167.397 280.646 168.913 273.068Z" fill="#FC7890"/>
</mask>
<g mask="url(#mask1_2_243)">
<ellipse cx="188.81" cy="291.318" rx="14.6931" ry="9.79541" transform="rotate(11.3104 188.81 291.318)" fill="#FFC8D2"/>
</g>
<path d="M164.3 428.711V427.09C164.294 426.582 164.248 426.068 164.164 425.547C164.086 425.026 163.962 424.525 163.793 424.043C163.617 423.561 163.395 423.112 163.129 422.695C162.868 422.272 162.556 421.904 162.191 421.592C161.826 421.279 161.407 421.035 160.931 420.859C160.456 420.677 159.925 420.586 159.339 420.586C158.754 420.586 158.223 420.677 157.748 420.859C157.279 421.035 156.862 421.279 156.498 421.592C156.133 421.911 155.817 422.282 155.55 422.705C155.29 423.122 155.075 423.571 154.906 424.053C154.73 424.535 154.6 425.036 154.515 425.557C154.437 426.071 154.395 426.582 154.388 427.09V428.711C154.395 429.219 154.44 429.73 154.525 430.244C154.61 430.758 154.74 431.257 154.916 431.738C155.085 432.22 155.303 432.673 155.57 433.096C155.837 433.512 156.153 433.877 156.517 434.189C156.882 434.502 157.298 434.749 157.767 434.932C158.242 435.107 158.773 435.195 159.359 435.195C159.945 435.195 160.472 435.107 160.941 434.932C161.416 434.749 161.836 434.502 162.201 434.189C162.565 433.877 162.878 433.512 163.138 433.096C163.405 432.679 163.623 432.23 163.793 431.748C163.962 431.266 164.086 430.768 164.164 430.254C164.248 429.733 164.294 429.219 164.3 428.711ZM162.513 427.07V428.711C162.507 429.049 162.484 429.404 162.445 429.775C162.412 430.146 162.351 430.511 162.259 430.869C162.162 431.234 162.035 431.582 161.879 431.914C161.729 432.24 161.54 432.526 161.312 432.773C161.078 433.027 160.798 433.229 160.472 433.379C160.153 433.529 159.782 433.604 159.359 433.604C158.936 433.604 158.565 433.529 158.246 433.379C157.927 433.229 157.65 433.027 157.416 432.773C157.181 432.526 156.986 432.236 156.83 431.904C156.673 431.572 156.546 431.224 156.449 430.859C156.351 430.501 156.28 430.137 156.234 429.766C156.195 429.395 156.172 429.043 156.166 428.711V427.07C156.172 426.738 156.195 426.39 156.234 426.025C156.28 425.654 156.351 425.286 156.449 424.922C156.54 424.564 156.664 424.222 156.82 423.896C156.976 423.564 157.171 423.271 157.406 423.018C157.64 422.77 157.917 422.572 158.236 422.422C158.555 422.272 158.923 422.197 159.339 422.197C159.763 422.197 160.134 422.272 160.453 422.422C160.772 422.565 161.048 422.76 161.283 423.008C161.517 423.262 161.713 423.555 161.869 423.887C162.025 424.212 162.152 424.554 162.25 424.912C162.341 425.277 162.406 425.645 162.445 426.016C162.484 426.38 162.507 426.732 162.513 427.07ZM166.664 435H168.471V427.422C168.594 427.194 168.738 426.986 168.9 426.797C169.07 426.608 169.252 426.442 169.447 426.299C169.688 426.136 169.952 426.009 170.238 425.918C170.525 425.82 170.834 425.771 171.166 425.771C171.55 425.771 171.889 425.817 172.182 425.908C172.481 425.999 172.735 426.146 172.943 426.348C173.145 426.549 173.298 426.813 173.402 427.139C173.507 427.464 173.559 427.861 173.559 428.33V435H175.365V428.291C175.365 427.588 175.277 426.982 175.102 426.475C174.932 425.96 174.688 425.537 174.369 425.205C174.05 424.873 173.663 424.629 173.207 424.473C172.758 424.316 172.257 424.238 171.703 424.238C171.293 424.245 170.902 424.307 170.531 424.424C170.167 424.535 169.828 424.694 169.516 424.902C169.307 425.039 169.109 425.202 168.92 425.391C168.738 425.573 168.568 425.775 168.412 425.996L168.285 424.434H166.664V435ZM182.944 435.195C183.972 435.195 184.835 434.99 185.532 434.58C186.235 434.163 186.762 433.688 187.114 433.154L186.01 432.295C185.678 432.725 185.261 433.07 184.76 433.33C184.259 433.59 183.686 433.721 183.041 433.721C182.553 433.721 182.107 433.63 181.704 433.447C181.3 433.265 180.955 433.014 180.668 432.695C180.388 432.396 180.167 432.051 180.004 431.66C179.848 431.27 179.747 430.817 179.702 430.303V430.234H187.25V429.424C187.25 428.688 187.156 428.005 186.967 427.373C186.785 426.742 186.505 426.191 186.127 425.723C185.75 425.26 185.274 424.899 184.702 424.639C184.135 424.372 183.471 424.238 182.709 424.238C182.104 424.238 181.511 424.362 180.932 424.609C180.359 424.857 179.848 425.212 179.399 425.674C178.943 426.143 178.579 426.715 178.305 427.393C178.032 428.063 177.895 428.825 177.895 429.678V430.088C177.895 430.824 178.019 431.504 178.266 432.129C178.513 432.754 178.858 433.294 179.301 433.75C179.744 434.206 180.274 434.561 180.893 434.814C181.518 435.068 182.202 435.195 182.944 435.195ZM182.709 425.723C183.172 425.723 183.569 425.807 183.901 425.977C184.239 426.146 184.519 426.367 184.741 426.641C184.962 426.914 185.135 427.24 185.258 427.617C185.382 427.988 185.444 428.337 185.444 428.662V428.75H179.76C179.832 428.262 179.955 427.832 180.131 427.461C180.314 427.083 180.535 426.764 180.795 426.504C181.056 426.25 181.349 426.058 181.674 425.928C182 425.791 182.345 425.723 182.709 425.723ZM191.108 424.434V426.006H194.634V435.068C194.634 435.57 194.568 435.99 194.438 436.328C194.315 436.673 194.142 436.95 193.921 437.158C193.699 437.367 193.439 437.513 193.139 437.598C192.84 437.689 192.521 437.734 192.182 437.734C192.091 437.734 191.964 437.731 191.802 437.725C191.645 437.725 191.483 437.718 191.313 437.705C191.138 437.699 190.965 437.686 190.796 437.666C190.626 437.653 190.486 437.637 190.376 437.617L190.249 439.102C190.412 439.128 190.568 439.15 190.718 439.17C190.867 439.196 191.017 439.215 191.167 439.229C191.349 439.242 191.535 439.251 191.723 439.258C191.912 439.264 192.108 439.268 192.309 439.268C192.96 439.268 193.54 439.173 194.048 438.984C194.562 438.802 194.998 438.532 195.356 438.174C195.708 437.822 195.975 437.386 196.157 436.865C196.346 436.344 196.44 435.745 196.44 435.068V424.434H191.108ZM194.38 421.65C194.38 421.943 194.468 422.191 194.643 422.393C194.819 422.588 195.089 422.686 195.454 422.686C195.818 422.686 196.092 422.588 196.274 422.393C196.457 422.191 196.548 421.943 196.548 421.65C196.548 421.357 196.457 421.11 196.274 420.908C196.092 420.7 195.818 420.596 195.454 420.596C195.089 420.596 194.819 420.7 194.643 420.908C194.468 421.11 194.38 421.357 194.38 421.65ZM201.782 424.434V426.006H205.376V433.438H201.782V435H210.63V433.438H207.183V424.434H201.782ZM205.142 421.66C205.142 421.953 205.23 422.197 205.405 422.393C205.588 422.588 205.861 422.686 206.226 422.686C206.584 422.686 206.854 422.588 207.036 422.393C207.219 422.197 207.31 421.953 207.31 421.66C207.31 421.497 207.284 421.348 207.232 421.211C207.18 421.074 207.101 420.96 206.997 420.869C206.913 420.785 206.805 420.719 206.675 420.674C206.545 420.622 206.395 420.596 206.226 420.596C206.057 420.596 205.904 420.622 205.767 420.674C205.637 420.719 205.529 420.785 205.445 420.869C205.34 420.967 205.262 421.084 205.21 421.221C205.165 421.357 205.142 421.504 205.142 421.66ZM213.394 424.434V426.006H216.988V433.438H213.394V435H222.242V433.438H218.795V424.434H213.394ZM216.754 421.66C216.754 421.953 216.841 422.197 217.017 422.393C217.199 422.588 217.473 422.686 217.838 422.686C218.196 422.686 218.466 422.588 218.648 422.393C218.83 422.197 218.921 421.953 218.921 421.66C218.921 421.497 218.895 421.348 218.843 421.211C218.791 421.074 218.713 420.96 218.609 420.869C218.524 420.785 218.417 420.719 218.287 420.674C218.157 420.622 218.007 420.596 217.838 420.596C217.668 420.596 217.515 420.622 217.379 420.674C217.248 420.719 217.141 420.785 217.056 420.869C216.952 420.967 216.874 421.084 216.822 421.221C216.776 421.357 216.754 421.504 216.754 421.66ZM231.646 424.238C230.878 424.238 230.191 424.408 229.586 424.746C228.987 425.078 228.473 425.534 228.043 426.113L228.033 425.85L227.955 424.434H226.236V435H228.053V428.223C228.17 427.897 228.316 427.604 228.492 427.344C228.674 427.077 228.886 426.852 229.127 426.67C229.394 426.462 229.706 426.305 230.064 426.201C230.423 426.09 230.823 426.035 231.266 426.035C231.611 426.035 231.939 426.055 232.252 426.094C232.571 426.126 232.906 426.182 233.258 426.26L233.502 424.492C233.32 424.414 233.046 424.352 232.682 424.307C232.324 424.261 231.979 424.238 231.646 424.238ZM235.827 429.619V429.834C235.827 430.596 235.937 431.302 236.159 431.953C236.38 432.604 236.699 433.171 237.116 433.652C237.526 434.134 238.027 434.512 238.62 434.785C239.218 435.059 239.892 435.195 240.641 435.195C241.383 435.195 242.051 435.059 242.643 434.785C243.235 434.512 243.74 434.134 244.157 433.652C244.567 433.171 244.883 432.604 245.104 431.953C245.325 431.302 245.436 430.596 245.436 429.834V429.619C245.436 428.857 245.325 428.151 245.104 427.5C244.883 426.842 244.567 426.273 244.157 425.791C243.74 425.309 243.232 424.932 242.633 424.658C242.041 424.378 241.37 424.238 240.621 424.238C239.879 424.238 239.212 424.378 238.62 424.658C238.027 424.932 237.526 425.309 237.116 425.791C236.699 426.273 236.38 426.842 236.159 427.5C235.937 428.151 235.827 428.857 235.827 429.619ZM237.633 429.834V429.619C237.633 429.105 237.695 428.613 237.819 428.145C237.942 427.669 238.131 427.253 238.385 426.895C238.633 426.536 238.942 426.253 239.313 426.045C239.684 425.83 240.12 425.723 240.621 425.723C241.123 425.723 241.559 425.83 241.93 426.045C242.308 426.253 242.623 426.536 242.877 426.895C243.125 427.253 243.31 427.669 243.434 428.145C243.564 428.613 243.629 429.105 243.629 429.619V429.834C243.629 430.355 243.567 430.853 243.444 431.328C243.32 431.797 243.135 432.21 242.887 432.568C242.633 432.926 242.317 433.21 241.94 433.418C241.569 433.626 241.136 433.73 240.641 433.73C240.14 433.73 239.7 433.626 239.323 433.418C238.945 433.21 238.633 432.926 238.385 432.568C238.131 432.21 237.942 431.797 237.819 431.328C237.695 430.853 237.633 430.355 237.633 429.834Z" fill="black"/>
</g>
<defs>
<clipPath id="clip0_2_243">
<rect width="400" height="440" fill="white"/>
</clipPath>
</defs>
</svg>
