<svg width="400" height="440" viewBox="0 0 400 440" fill="none" xmlns="http://www.w3.org/2000/svg">
<g clip-path="url(#clip0_2_242)">
<path d="M228.353 27.0074C298.484 27.0074 336.205 57.2464 373.247 98.2642C410.29 139.282 413.963 212.743 343.19 316.055C294.966 386.451 230.172 400.746 126.493 373.353C22.8139 345.96 -9.71044 242.841 5.9579 158.498C21.6263 74.1543 115.762 27.0074 228.353 27.0074Z" fill="#FBC34D"/>
<path d="M71.2631 124.443C64.1996 131.519 82.0988 194.43 91.9313 225.001L156.118 149.244C143.433 123.379 80.0925 115.599 71.2631 124.443Z" fill="#4017E6"/>
<path d="M300.016 101.048C308.492 106.351 305.223 171.677 302.53 203.677L223.374 153.663C229.907 125.605 289.045 94.1848 300.016 101.048Z" fill="#4017E6"/>
<path d="M288.454 118.562C280.202 118.24 264.713 129.249 258 134.793L291.4 169.704C293.856 152.791 296.705 118.883 288.454 118.562Z" fill="#FF49B6"/>
<path d="M103.929 135.298C93.6448 132.431 86.2336 133.807 83.6456 136.506C82.7961 137.392 82.7363 138.705 82.8931 139.922C83.2614 142.782 84.44 149.416 88.2113 162.778C93.7262 182.318 96.7493 187.134 96.7493 187.134L130.636 149.196C126.539 146.656 116.076 138.683 103.929 135.298Z" fill="#FF49B6"/>
<path d="M177.391 122.864C91.929 138.514 73.8813 202.919 103.168 263.803C132.454 324.687 285.168 308.14 302.929 236.289C309.534 209.569 303.124 99.84 177.391 122.864Z" fill="#5B32FF"/>
<mask id="mask0_2_242" style="mask-type:alpha" maskUnits="userSpaceOnUse" x="90" y="119" width="215" height="183">
<path d="M177.509 122.852C92.0472 138.501 73.9995 202.906 103.286 263.79C132.572 324.675 285.286 308.127 303.047 236.277C309.652 209.557 303.242 99.8276 177.509 122.852Z" fill="#FCB358"/>
</mask>
<g mask="url(#mask0_2_242)">
<rect x="165.156" y="99.9918" width="45.4937" height="72.2233" rx="15.7069" transform="rotate(-6.03305 165.156 99.9918)" fill="white"/>
<rect x="122.514" y="80.2371" width="45.4937" height="72.2233" rx="15.7069" transform="rotate(-6.03305 122.514 80.2371)" fill="white"/>
<rect x="42.1611" y="215.144" width="45.4937" height="72.2233" rx="15.7069" transform="rotate(-46.0259 42.1611 215.144)" fill="white"/>
<rect x="310.104" y="157.038" width="45.4937" height="72.2233" rx="15.7069" transform="rotate(30.2369 310.104 157.038)" fill="white"/>
<rect x="198.554" y="70.0187" width="45.4937" height="72.2233" rx="15.7069" transform="rotate(-6.03305 198.554 70.0187)" fill="white"/>
<ellipse cx="204.795" cy="282.763" rx="81.5984" ry="54.5147" transform="rotate(-6.03306 204.795 282.763)" fill="#4017E5"/>
</g>
<line x1="190.458" y1="243.81" x2="141.566" y2="237.106" stroke="black" stroke-width="0.785344"/>
<line x1="190.28" y1="248.03" x2="151.387" y2="250.045" stroke="black" stroke-width="0.785344"/>
<line y1="-0.392672" x2="49.3503" y2="-0.392672" transform="matrix(0.940444 -0.339949 -0.339949 -0.940444 209.849 241.377)" stroke="black" stroke-width="0.785344"/>
<line y1="-0.392672" x2="38.9452" y2="-0.392672" transform="matrix(0.987415 -0.15815 -0.15815 -0.987415 210.978 245.448)" stroke="black" stroke-width="0.785344"/>
<circle cx="156.82" cy="201.644" r="26.8412" transform="rotate(-2.77645 156.82 201.644)" fill="#F7CA56"/>
<ellipse cx="156.82" cy="201.644" rx="8.95971" ry="26.8412" transform="rotate(-2.77645 156.82 201.644)" fill="black"/>
<circle cx="237.036" cy="192.63" r="26.8412" transform="rotate(-10.1321 237.036 192.63)" fill="#F7CA56"/>
<ellipse cx="236.081" cy="192.857" rx="8.95971" ry="26.8412" transform="rotate(-10.1321 236.081 192.857)" fill="black"/>
<circle cx="164.832" cy="190.019" r="6.06857" transform="rotate(15.2369 164.832 190.019)" fill="white"/>
<circle cx="243.695" cy="179.756" r="6.06857" transform="rotate(15.2369 243.695 179.756)" fill="white"/>
<circle cx="156.588" cy="199.095" r="3.64114" transform="rotate(15.2369 156.588 199.095)" fill="white"/>
<circle cx="237.931" cy="190.321" r="3.64114" transform="rotate(15.2369 237.931 190.321)" fill="white"/>
<path fill-rule="evenodd" clip-rule="evenodd" d="M208.823 258.362C206.888 259.925 204.456 260.911 201.781 261.041C199.903 261.132 198.104 260.792 196.48 260.108C197.877 259.08 198.75 257.393 198.659 255.531C198.516 252.577 196.005 250.298 193.051 250.441C191.633 250.51 190.371 251.125 189.457 252.072C189.235 251.245 189.097 250.381 189.054 249.491C188.728 242.787 193.9 237.089 200.604 236.763C207.308 236.438 213.006 241.609 213.331 248.313C213.338 248.455 213.342 248.595 213.344 248.735C212.449 248.174 211.379 247.871 210.243 247.926C207.289 248.069 205.011 250.58 205.154 253.534C205.264 255.811 206.781 257.687 208.823 258.362Z" fill="#FF49B6"/>
<path d="M184.307 270.613L220.909 266.744V266.744C221.715 274.373 216.185 281.21 208.556 282.016L199.579 282.965C191.95 283.771 185.113 278.241 184.307 270.613V270.613Z" fill="#FF49B6"/>
<mask id="mask1_2_242" style="mask-type:alpha" maskUnits="userSpaceOnUse" x="184" y="266" width="37" height="18">
<path d="M184.307 270.613L220.909 266.744V266.744C221.715 274.373 216.185 281.21 208.556 282.016L199.579 282.965C191.95 283.771 185.113 278.241 184.307 270.613V270.613Z" fill="#FF49B6"/>
</mask>
<g mask="url(#mask1_2_242)">
<ellipse cx="208.557" cy="282.016" rx="14.5835" ry="9.72236" transform="rotate(-6.03306 208.557 282.016)" fill="#FFC8D2"/>
</g>
<path d="M158.461 418.398L162.757 425H164.955L159.652 417.002L164.623 410.781H162.425L158.255 416.006L156.879 417.725V410.781H155.033V425H156.879V420.195L158.461 418.398ZM173.607 425H175.492V424.844C175.375 424.551 175.284 424.209 175.219 423.818C175.154 423.421 175.121 423.047 175.121 422.695V417.783C175.121 417.191 175.014 416.673 174.799 416.23C174.584 415.788 174.291 415.417 173.92 415.117C173.542 414.824 173.096 414.606 172.582 414.463C172.068 414.313 171.511 414.238 170.912 414.238C170.255 414.238 169.665 414.329 169.145 414.512C168.63 414.694 168.194 414.932 167.836 415.225C167.471 415.524 167.191 415.859 166.996 416.23C166.807 416.602 166.71 416.979 166.703 417.363H168.52C168.52 417.142 168.572 416.93 168.676 416.729C168.786 416.52 168.939 416.341 169.135 416.191C169.33 416.042 169.568 415.921 169.848 415.83C170.134 415.739 170.456 415.693 170.814 415.693C171.199 415.693 171.544 415.742 171.85 415.84C172.162 415.938 172.426 416.074 172.641 416.25C172.855 416.432 173.021 416.65 173.139 416.904C173.256 417.158 173.314 417.445 173.314 417.764V418.594H171.342C170.606 418.594 169.939 418.665 169.34 418.809C168.747 418.952 168.24 419.167 167.816 419.453C167.393 419.746 167.064 420.111 166.83 420.547C166.602 420.983 166.488 421.491 166.488 422.07C166.488 422.513 166.573 422.926 166.742 423.311C166.918 423.688 167.165 424.014 167.484 424.287C167.797 424.567 168.178 424.788 168.627 424.951C169.083 425.114 169.59 425.195 170.15 425.195C170.495 425.195 170.821 425.16 171.127 425.088C171.433 425.016 171.723 424.919 171.996 424.795C172.263 424.671 172.507 424.528 172.729 424.365C172.956 424.202 173.161 424.03 173.344 423.848C173.363 424.069 173.393 424.284 173.432 424.492C173.477 424.694 173.536 424.863 173.607 425ZM170.414 423.623C170.063 423.623 169.753 423.577 169.486 423.486C169.219 423.395 168.998 423.268 168.822 423.105C168.646 422.949 168.513 422.76 168.422 422.539C168.337 422.318 168.295 422.077 168.295 421.816C168.295 421.543 168.344 421.299 168.441 421.084C168.546 420.869 168.695 420.684 168.891 420.527C169.164 420.306 169.532 420.143 169.994 420.039C170.463 419.928 171.01 419.873 171.635 419.873H173.314V422.012C173.21 422.22 173.067 422.422 172.885 422.617C172.702 422.806 172.488 422.975 172.24 423.125C171.986 423.275 171.706 423.395 171.4 423.486C171.094 423.577 170.766 423.623 170.414 423.623ZM179.291 425H180.717L182.348 418.525L182.612 416.885L182.885 418.525L184.536 425H185.961L188.207 414.434H186.606L185.434 421.172L185.17 422.832L184.887 421.172L183.207 414.434H182.045L180.356 421.172L180.092 422.686L179.877 421.172L178.647 414.434H177.045L179.291 425ZM196.831 425H198.716V424.844C198.598 424.551 198.507 424.209 198.442 423.818C198.377 423.421 198.345 423.047 198.345 422.695V417.783C198.345 417.191 198.237 416.673 198.022 416.23C197.807 415.788 197.514 415.417 197.143 415.117C196.766 414.824 196.32 414.606 195.805 414.463C195.291 414.313 194.735 414.238 194.136 414.238C193.478 414.238 192.889 414.329 192.368 414.512C191.854 414.694 191.417 414.932 191.059 415.225C190.695 415.524 190.415 415.859 190.22 416.23C190.031 416.602 189.933 416.979 189.927 417.363H191.743C191.743 417.142 191.795 416.93 191.899 416.729C192.01 416.52 192.163 416.341 192.358 416.191C192.554 416.042 192.791 415.921 193.071 415.83C193.358 415.739 193.68 415.693 194.038 415.693C194.422 415.693 194.767 415.742 195.073 415.84C195.386 415.938 195.649 416.074 195.864 416.25C196.079 416.432 196.245 416.65 196.362 416.904C196.479 417.158 196.538 417.445 196.538 417.764V418.594H194.565C193.83 418.594 193.162 418.665 192.563 418.809C191.971 418.952 191.463 419.167 191.04 419.453C190.617 419.746 190.288 420.111 190.054 420.547C189.826 420.983 189.712 421.491 189.712 422.07C189.712 422.513 189.796 422.926 189.966 423.311C190.141 423.688 190.389 424.014 190.708 424.287C191.02 424.567 191.401 424.788 191.85 424.951C192.306 425.114 192.814 425.195 193.374 425.195C193.719 425.195 194.044 425.16 194.35 425.088C194.656 425.016 194.946 424.919 195.22 424.795C195.486 424.671 195.731 424.528 195.952 424.365C196.18 424.202 196.385 424.03 196.567 423.848C196.587 424.069 196.616 424.284 196.655 424.492C196.701 424.694 196.759 424.863 196.831 425ZM193.638 423.623C193.286 423.623 192.977 423.577 192.71 423.486C192.443 423.395 192.221 423.268 192.046 423.105C191.87 422.949 191.736 422.76 191.645 422.539C191.561 422.318 191.518 422.077 191.518 421.816C191.518 421.543 191.567 421.299 191.665 421.084C191.769 420.869 191.919 420.684 192.114 420.527C192.388 420.306 192.755 420.143 193.218 420.039C193.686 419.928 194.233 419.873 194.858 419.873H196.538V422.012C196.434 422.22 196.29 422.422 196.108 422.617C195.926 422.806 195.711 422.975 195.464 423.125C195.21 423.275 194.93 423.395 194.624 423.486C194.318 423.577 193.989 423.623 193.638 423.623ZM201.499 425H203.306V417.422C203.43 417.194 203.573 416.986 203.736 416.797C203.905 416.608 204.087 416.442 204.282 416.299C204.523 416.136 204.787 416.009 205.073 415.918C205.36 415.82 205.669 415.771 206.001 415.771C206.385 415.771 206.724 415.817 207.017 415.908C207.316 415.999 207.57 416.146 207.779 416.348C207.98 416.549 208.133 416.813 208.238 417.139C208.342 417.464 208.394 417.861 208.394 418.33V425H210.2V418.291C210.2 417.588 210.113 416.982 209.937 416.475C209.767 415.96 209.523 415.537 209.204 415.205C208.885 414.873 208.498 414.629 208.042 414.473C207.593 414.316 207.092 414.238 206.538 414.238C206.128 414.245 205.738 414.307 205.366 414.424C205.002 414.535 204.663 414.694 204.351 414.902C204.142 415.039 203.944 415.202 203.755 415.391C203.573 415.573 203.404 415.775 203.247 415.996L203.12 414.434H201.499V425ZM217.779 425.195C218.808 425.195 219.67 424.99 220.367 424.58C221.07 424.163 221.597 423.688 221.949 423.154L220.845 422.295C220.513 422.725 220.097 423.07 219.595 423.33C219.094 423.59 218.521 423.721 217.877 423.721C217.388 423.721 216.942 423.63 216.539 423.447C216.135 423.265 215.79 423.014 215.504 422.695C215.224 422.396 215.002 422.051 214.839 421.66C214.683 421.27 214.582 420.817 214.537 420.303V420.234H222.086V419.424C222.086 418.688 221.991 418.005 221.802 417.373C221.62 416.742 221.34 416.191 220.963 415.723C220.585 415.26 220.11 414.899 219.537 414.639C218.97 414.372 218.306 414.238 217.545 414.238C216.939 414.238 216.347 414.362 215.767 414.609C215.194 414.857 214.683 415.212 214.234 415.674C213.778 416.143 213.414 416.715 213.14 417.393C212.867 418.063 212.73 418.825 212.73 419.678V420.088C212.73 420.824 212.854 421.504 213.101 422.129C213.349 422.754 213.694 423.294 214.136 423.75C214.579 424.206 215.11 424.561 215.728 424.814C216.353 425.068 217.037 425.195 217.779 425.195ZM217.545 415.723C218.007 415.723 218.404 415.807 218.736 415.977C219.074 416.146 219.354 416.367 219.576 416.641C219.797 416.914 219.97 417.24 220.093 417.617C220.217 417.988 220.279 418.337 220.279 418.662V418.75H214.595C214.667 418.262 214.791 417.832 214.966 417.461C215.149 417.083 215.37 416.764 215.63 416.504C215.891 416.25 216.184 416.058 216.509 415.928C216.835 415.791 217.18 415.723 217.545 415.723ZM227.887 420.068L231.764 425H234.059L229.127 418.838L233.404 414.434H231.207L227.74 417.91L226.559 419.18V410H224.742V425H226.559V421.348L227.887 420.068ZM235.827 419.619V419.834C235.827 420.596 235.937 421.302 236.159 421.953C236.38 422.604 236.699 423.171 237.116 423.652C237.526 424.134 238.027 424.512 238.62 424.785C239.218 425.059 239.892 425.195 240.641 425.195C241.383 425.195 242.051 425.059 242.643 424.785C243.235 424.512 243.74 424.134 244.157 423.652C244.567 423.171 244.883 422.604 245.104 421.953C245.325 421.302 245.436 420.596 245.436 419.834V419.619C245.436 418.857 245.325 418.151 245.104 417.5C244.883 416.842 244.567 416.273 244.157 415.791C243.74 415.309 243.232 414.932 242.633 414.658C242.041 414.378 241.37 414.238 240.621 414.238C239.879 414.238 239.212 414.378 238.62 414.658C238.027 414.932 237.526 415.309 237.116 415.791C236.699 416.273 236.38 416.842 236.159 417.5C235.937 418.151 235.827 418.857 235.827 419.619ZM237.633 419.834V419.619C237.633 419.105 237.695 418.613 237.819 418.145C237.942 417.669 238.131 417.253 238.385 416.895C238.633 416.536 238.942 416.253 239.313 416.045C239.684 415.83 240.12 415.723 240.621 415.723C241.123 415.723 241.559 415.83 241.93 416.045C242.308 416.253 242.623 416.536 242.877 416.895C243.125 417.253 243.31 417.669 243.434 418.145C243.564 418.613 243.629 419.105 243.629 419.619V419.834C243.629 420.355 243.567 420.853 243.444 421.328C243.32 421.797 243.135 422.21 242.887 422.568C242.633 422.926 242.317 423.21 241.94 423.418C241.569 423.626 241.136 423.73 240.641 423.73C240.14 423.73 239.7 423.626 239.323 423.418C238.945 423.21 238.633 422.926 238.385 422.568C238.131 422.21 237.942 421.797 237.819 421.328C237.695 420.853 237.633 420.355 237.633 419.834Z" fill="black"/>
</g>
<defs>
<clipPath id="clip0_2_242">
<rect width="400" height="440" fill="white"/>
</clipPath>
</defs>
</svg>
