<svg width="400" height="440" viewBox="0 0 400 440" fill="none" xmlns="http://www.w3.org/2000/svg">
<g clip-path="url(#clip0_2_246)">
<path d="M226.523 29.0407C296.124 29.0407 333.561 59.0513 370.323 99.7592C407.086 140.467 410.732 213.373 340.493 315.905C292.633 385.769 228.329 399.957 125.433 372.77C22.5372 345.584 -9.7415 243.244 5.8085 159.538C21.3585 75.8315 114.783 29.0407 226.523 29.0407Z" fill="#EC5B36"/>
<path d="M64.7185 126.925C57.7589 134.443 78.5195 198.173 89.7698 229.098L152.569 149.041C138.58 123.045 73.418 117.526 64.7185 126.925Z" fill="#272334"/>
<path d="M298.059 94.1256C306.944 99.228 306.122 166.249 304.601 199.122L221.612 150.966C227.217 121.982 286.56 87.5213 298.059 94.1256Z" fill="#272334"/>
<path d="M286.896 112.507C278.434 112.496 262.999 124.368 256.339 130.305L291.89 164.763C293.752 147.349 295.358 112.517 286.896 112.507Z" fill="#FF49B6"/>
<path d="M98.5879 136.777C87.15 134.049 79.3004 136.212 77.3773 139.459C77.0143 140.072 76.9993 140.807 77.0989 141.513C77.4309 143.862 78.7037 150.527 83.5545 165.525C89.9571 185.32 93.2389 190.135 93.2389 190.135L126.473 149.977C122.18 147.534 111.157 139.774 98.5879 136.777Z" fill="#FF49B6"/>
<path d="M173.333 121.205C86.4239 140.534 70.4324 207.183 102.775 268.397C135.118 329.611 290.859 306.764 306.269 232.501C312 204.885 301.194 92.7685 173.333 121.205Z" fill="#444E59"/>
<mask id="mask0_2_246" style="mask-type:alpha" maskUnits="userSpaceOnUse" x="87" y="116" width="221" height="188">
<path d="M173.453 121.188C86.5435 140.517 70.552 207.166 102.895 268.38C135.238 329.594 290.978 306.747 306.389 232.484C312.12 204.867 301.314 92.7514 173.453 121.188Z" fill="#FCB358"/>
</mask>
<g mask="url(#mask0_2_246)">
<rect x="177.465" y="83.928" width="57.3234" height="57.3234" rx="9.11495" transform="rotate(36.8021 177.465 83.928)" fill="#272334"/>
<ellipse cx="207.576" cy="283.884" rx="46.6144" ry="55.8633" transform="rotate(-8.19477 207.576 283.884)" fill="#272334"/>
</g>
<line x1="191.406" y1="244.376" x2="141.08" y2="239.401" stroke="black" stroke-width="0.455747"/>
<line x1="191.353" y1="248.704" x2="151.604" y2="252.271" stroke="black" stroke-width="0.455747"/>
<line y1="-0.227874" x2="50.5711" y2="-0.227874" transform="matrix(0.926952 -0.375181 -0.375181 -0.926952 211.151 241.309)" stroke="black" stroke-width="0.455747"/>
<line y1="-0.227874" x2="39.9087" y2="-0.227874" transform="matrix(0.980747 -0.195283 -0.195283 -0.980747 212.463 245.434)" stroke="black" stroke-width="0.455747"/>
<circle cx="155.313" cy="202.672" r="27.5052" transform="rotate(-4.93817 155.313 202.672)" fill="#272334"/>
<ellipse cx="8.98451" cy="21.9563" rx="8.98451" ry="21.9563" transform="matrix(0.987572 -0.157168 -0.00166579 0.999999 146.501 182.185)" fill="#56F670"/>
<circle cx="237.106" cy="190.341" r="27.5052" transform="rotate(-12.2938 237.106 190.341)" fill="#272334"/>
<ellipse cx="9.10684" cy="21.4992" rx="9.10684" ry="21.4992" transform="matrix(0.96646 -0.256817 0.156602 0.987662 225.046 170.606)" fill="#56F670"/>
<circle cx="163.068" cy="190.458" r="6.2187" transform="rotate(13.0752 163.068 190.458)" fill="white"/>
<circle cx="243.428" cy="176.9" r="6.2187" transform="rotate(13.0752 243.428 176.9)" fill="white"/>
<circle cx="154.976" cy="200.071" r="3.73122" transform="rotate(13.0752 154.976 200.071)" fill="white"/>
<circle cx="237.933" cy="187.942" r="3.73122" transform="rotate(13.0752 237.933 187.942)" fill="white"/>
<path fill-rule="evenodd" clip-rule="evenodd" d="M210.758 258.741C208.837 260.417 206.385 261.52 203.65 261.757C201.731 261.923 199.876 261.644 198.186 261.006C199.577 259.899 200.405 258.139 200.241 256.235C199.98 253.216 197.321 250.98 194.301 251.24C192.852 251.366 191.583 252.043 190.684 253.048C190.424 252.21 190.25 251.331 190.171 250.421C189.579 243.569 194.654 237.534 201.506 236.942C208.359 236.35 214.394 241.425 214.986 248.277C214.998 248.422 215.008 248.565 215.016 248.709C214.077 248.168 212.97 247.9 211.809 248C208.79 248.261 206.553 250.92 206.814 253.94C207.015 256.267 208.641 258.129 210.758 258.741Z" fill="#FF49B6"/>
<path d="M186.126 272.234L223.457 266.858L224.187 271.924C224.905 276.906 221.447 281.527 216.464 282.245L197.177 285.022C192.194 285.74 187.573 282.282 186.855 277.3L186.126 272.234Z" fill="#FF49B6"/>
<mask id="mask1_2_246" style="mask-type:alpha" maskUnits="userSpaceOnUse" x="186" y="266" width="39" height="20">
<path d="M186.126 272.234L223.457 266.858L224.187 271.924C224.905 276.906 221.447 281.527 216.464 282.245L197.177 285.022C192.194 285.74 187.573 282.282 186.855 277.3L186.126 272.234Z" fill="#FF49B6"/>
</mask>
<g mask="url(#mask1_2_246)">
<ellipse cx="211.399" cy="282.974" rx="14.9443" ry="9.96288" transform="rotate(-8.19477 211.399 282.974)" fill="#FFC8D2"/>
</g>
<path d="M167.528 420.781V430.674C167.515 431.077 167.443 431.462 167.313 431.826C167.19 432.184 167.011 432.5 166.776 432.773C166.535 433.047 166.246 433.265 165.907 433.428C165.568 433.584 165.184 433.662 164.755 433.662C164.338 433.662 163.96 433.594 163.622 433.457C163.29 433.32 163.003 433.125 162.763 432.871C162.522 432.624 162.33 432.331 162.186 431.992C162.05 431.654 161.971 431.286 161.952 430.889H160.116C160.175 431.546 160.324 432.142 160.565 432.676C160.806 433.203 161.128 433.652 161.532 434.023C161.929 434.401 162.398 434.691 162.938 434.893C163.485 435.094 164.091 435.195 164.755 435.195C165.412 435.195 166.018 435.085 166.571 434.863C167.131 434.635 167.616 434.32 168.026 433.916C168.436 433.519 168.759 433.044 168.993 432.49C169.234 431.937 169.361 431.331 169.374 430.674V420.781H167.528ZM179.413 435H181.298V434.844C181.181 434.551 181.09 434.209 181.025 433.818C180.96 433.421 180.927 433.047 180.927 432.695V427.783C180.927 427.191 180.82 426.673 180.605 426.23C180.39 425.788 180.097 425.417 179.726 425.117C179.348 424.824 178.902 424.606 178.388 424.463C177.874 424.313 177.317 424.238 176.718 424.238C176.06 424.238 175.471 424.329 174.95 424.512C174.436 424.694 174 424.932 173.642 425.225C173.277 425.524 172.997 425.859 172.802 426.23C172.613 426.602 172.515 426.979 172.509 427.363H174.325C174.325 427.142 174.377 426.93 174.482 426.729C174.592 426.52 174.745 426.341 174.941 426.191C175.136 426.042 175.374 425.921 175.654 425.83C175.94 425.739 176.262 425.693 176.62 425.693C177.004 425.693 177.349 425.742 177.655 425.84C177.968 425.938 178.232 426.074 178.446 426.25C178.661 426.432 178.827 426.65 178.945 426.904C179.062 427.158 179.12 427.445 179.12 427.764V428.594H177.148C176.412 428.594 175.745 428.665 175.146 428.809C174.553 428.952 174.045 429.167 173.622 429.453C173.199 429.746 172.87 430.111 172.636 430.547C172.408 430.983 172.294 431.491 172.294 432.07C172.294 432.513 172.379 432.926 172.548 433.311C172.724 433.688 172.971 434.014 173.29 434.287C173.603 434.567 173.984 434.788 174.433 434.951C174.889 435.114 175.396 435.195 175.956 435.195C176.301 435.195 176.627 435.16 176.933 435.088C177.239 435.016 177.529 434.919 177.802 434.795C178.069 434.671 178.313 434.528 178.534 434.365C178.762 434.202 178.967 434.03 179.15 433.848C179.169 434.069 179.198 434.284 179.238 434.492C179.283 434.694 179.342 434.863 179.413 435ZM176.22 433.623C175.868 433.623 175.559 433.577 175.292 433.486C175.025 433.395 174.804 433.268 174.628 433.105C174.452 432.949 174.319 432.76 174.228 432.539C174.143 432.318 174.101 432.077 174.101 431.816C174.101 431.543 174.15 431.299 174.247 431.084C174.351 430.869 174.501 430.684 174.696 430.527C174.97 430.306 175.338 430.143 175.8 430.039C176.269 429.928 176.816 429.873 177.441 429.873H179.12V432.012C179.016 432.22 178.873 432.422 178.691 432.617C178.508 432.806 178.293 432.975 178.046 433.125C177.792 433.275 177.512 433.395 177.206 433.486C176.9 433.577 176.571 433.623 176.22 433.623ZM191.025 435H192.91V434.844C192.793 434.551 192.701 434.209 192.636 433.818C192.571 433.421 192.539 433.047 192.539 432.695V427.783C192.539 427.191 192.431 426.673 192.216 426.23C192.002 425.788 191.709 425.417 191.338 425.117C190.96 424.824 190.514 424.606 190 424.463C189.485 424.313 188.929 424.238 188.33 424.238C187.672 424.238 187.083 424.329 186.562 424.512C186.048 424.694 185.612 424.932 185.254 425.225C184.889 425.524 184.609 425.859 184.414 426.23C184.225 426.602 184.127 426.979 184.121 427.363H185.937C185.937 427.142 185.989 426.93 186.093 426.729C186.204 426.52 186.357 426.341 186.552 426.191C186.748 426.042 186.985 425.921 187.265 425.83C187.552 425.739 187.874 425.693 188.232 425.693C188.616 425.693 188.961 425.742 189.267 425.84C189.58 425.938 189.843 426.074 190.058 426.25C190.273 426.432 190.439 426.65 190.556 426.904C190.673 427.158 190.732 427.445 190.732 427.764V428.594H188.759C188.024 428.594 187.356 428.665 186.757 428.809C186.165 428.952 185.657 429.167 185.234 429.453C184.811 429.746 184.482 430.111 184.248 430.547C184.02 430.983 183.906 431.491 183.906 432.07C183.906 432.513 183.99 432.926 184.16 433.311C184.336 433.688 184.583 434.014 184.902 434.287C185.214 434.567 185.595 434.788 186.045 434.951C186.5 435.114 187.008 435.195 187.568 435.195C187.913 435.195 188.239 435.16 188.545 435.088C188.851 435.016 189.14 434.919 189.414 434.795C189.681 434.671 189.925 434.528 190.146 434.365C190.374 434.202 190.579 434.03 190.761 433.848C190.781 434.069 190.81 434.284 190.849 434.492C190.895 434.694 190.953 434.863 191.025 435ZM187.832 433.623C187.48 433.623 187.171 433.577 186.904 433.486C186.637 433.395 186.416 433.268 186.24 433.105C186.064 432.949 185.931 432.76 185.839 432.539C185.755 432.318 185.713 432.077 185.713 431.816C185.713 431.543 185.761 431.299 185.859 431.084C185.963 430.869 186.113 430.684 186.308 430.527C186.582 430.306 186.949 430.143 187.412 430.039C187.88 429.928 188.427 429.873 189.052 429.873H190.732V432.012C190.628 432.22 190.485 432.422 190.302 432.617C190.12 432.806 189.905 432.975 189.658 433.125C189.404 433.275 189.124 433.395 188.818 433.486C188.512 433.577 188.183 433.623 187.832 433.623ZM198.857 430.068L202.734 435H205.029L200.098 428.838L204.375 424.434H202.178L198.711 427.91L197.529 429.18V420H195.713V435H197.529V431.348L198.857 430.068ZM214.268 435H215.909V424.434H214.092V432.012C213.995 432.24 213.871 432.451 213.721 432.646C213.578 432.835 213.409 432.998 213.213 433.135C212.979 433.304 212.702 433.438 212.383 433.535C212.064 433.626 211.703 433.672 211.299 433.672C210.954 433.672 210.648 433.626 210.381 433.535C210.121 433.444 209.899 433.285 209.717 433.057C209.535 432.835 209.398 432.536 209.307 432.158C209.216 431.781 209.17 431.305 209.17 430.732V424.434H207.364V430.713C207.364 431.501 207.448 432.178 207.618 432.744C207.793 433.304 208.041 433.766 208.36 434.131C208.679 434.495 209.063 434.766 209.512 434.941C209.961 435.111 210.463 435.195 211.016 435.195C211.706 435.195 212.315 435.052 212.842 434.766C213.37 434.473 213.809 434.066 214.161 433.545L214.268 435ZM218.917 435H220.723V427.422C220.847 427.194 220.99 426.986 221.153 426.797C221.322 426.608 221.505 426.442 221.7 426.299C221.941 426.136 222.205 426.009 222.491 425.918C222.777 425.82 223.087 425.771 223.419 425.771C223.803 425.771 224.141 425.817 224.434 425.908C224.734 425.999 224.988 426.146 225.196 426.348C225.398 426.549 225.551 426.813 225.655 427.139C225.759 427.464 225.811 427.861 225.811 428.33V435H227.618V428.291C227.618 427.588 227.53 426.982 227.354 426.475C227.185 425.96 226.941 425.537 226.622 425.205C226.303 424.873 225.915 424.629 225.46 424.473C225.011 424.316 224.509 424.238 223.956 424.238C223.546 424.245 223.155 424.307 222.784 424.424C222.419 424.535 222.081 424.694 221.768 424.902C221.56 425.039 221.361 425.202 221.173 425.391C220.99 425.573 220.821 425.775 220.665 425.996L220.538 424.434H218.917V435ZM237.472 435H239.357V434.844C239.239 434.551 239.148 434.209 239.083 433.818C239.018 433.421 238.986 433.047 238.986 432.695V427.783C238.986 427.191 238.878 426.673 238.663 426.23C238.448 425.788 238.155 425.417 237.784 425.117C237.407 424.824 236.961 424.606 236.446 424.463C235.932 424.313 235.376 424.238 234.777 424.238C234.119 424.238 233.53 424.329 233.009 424.512C232.495 424.694 232.058 424.932 231.7 425.225C231.336 425.524 231.056 425.859 230.861 426.23C230.672 426.602 230.574 426.979 230.568 427.363H232.384C232.384 427.142 232.436 426.93 232.54 426.729C232.651 426.52 232.804 426.341 232.999 426.191C233.195 426.042 233.432 425.921 233.712 425.83C233.999 425.739 234.321 425.693 234.679 425.693C235.063 425.693 235.408 425.742 235.714 425.84C236.027 425.938 236.29 426.074 236.505 426.25C236.72 426.432 236.886 426.65 237.003 426.904C237.12 427.158 237.179 427.445 237.179 427.764V428.594H235.206C234.471 428.594 233.803 428.665 233.204 428.809C232.612 428.952 232.104 429.167 231.681 429.453C231.258 429.746 230.929 430.111 230.695 430.547C230.467 430.983 230.353 431.491 230.353 432.07C230.353 432.513 230.437 432.926 230.607 433.311C230.782 433.688 231.03 434.014 231.349 434.287C231.661 434.567 232.042 434.788 232.491 434.951C232.947 435.114 233.455 435.195 234.015 435.195C234.36 435.195 234.685 435.16 234.991 435.088C235.297 435.016 235.587 434.919 235.861 434.795C236.127 434.671 236.372 434.528 236.593 434.365C236.821 434.202 237.026 434.03 237.208 433.848C237.228 434.069 237.257 434.284 237.296 434.492C237.342 434.694 237.4 434.863 237.472 435ZM234.279 433.623C233.927 433.623 233.618 433.577 233.351 433.486C233.084 433.395 232.863 433.268 232.687 433.105C232.511 432.949 232.377 432.76 232.286 432.539C232.202 432.318 232.159 432.077 232.159 431.816C232.159 431.543 232.208 431.299 232.306 431.084C232.41 430.869 232.56 430.684 232.755 430.527C233.029 430.306 233.396 430.143 233.859 430.039C234.327 429.928 234.874 429.873 235.499 429.873H237.179V432.012C237.075 432.22 236.932 432.422 236.749 432.617C236.567 432.806 236.352 432.975 236.105 433.125C235.851 433.275 235.571 433.395 235.265 433.486C234.959 433.577 234.63 433.623 234.279 433.623Z" fill="black"/>
</g>
<defs>
<clipPath id="clip0_2_246">
<rect width="400" height="440" fill="white"/>
</clipPath>
</defs>
</svg>
