<svg width="440" height="440" viewBox="0 0 440 440" fill="none" xmlns="http://www.w3.org/2000/svg">
<g clip-path="url(#clip0_2_245)">
<path d="M120.157 373.295C49.8108 346.303 27.6124 296.368 9.25123 239.899C-9.1099 183.429 2.78194 90.7679 131 49.9998C185.821 32.5688 282.158 5.88147 371.856 78.1882C461.555 150.495 448.269 265.901 395.937 341.771C371.856 376.684 208 407 120.157 373.295Z" fill="#67B690"/>
<path d="M98.5869 107.693C90.4696 113.306 96.6546 177.574 100.762 209.007L176.563 146.872C168.849 119.501 108.734 100.677 98.5869 107.693Z" fill="#FFD952"/>
<path d="M324.856 125.681C332.142 132.338 317.345 195.184 309.035 225.775L241.079 163.13C252.414 137.049 315.425 117.065 324.856 125.681Z" fill="#FFD952"/>
<path d="M310.513 140.628C302.559 138.848 285.561 146.78 278.057 150.969L304.274 190.809C309.668 174.824 318.468 142.409 310.513 140.628Z" fill="#FF49B6"/>
<path d="M128.373 124.044C118.897 119.431 111.456 119.448 108.463 121.608C107.481 122.318 107.189 123.581 107.125 124.791C106.973 127.633 106.937 134.285 108.221 147.929C110.099 167.883 112.178 173.097 112.178 173.097L151.83 142.291C148.305 139.095 139.564 129.493 128.373 124.044Z" fill="#FF49B6"/>
<path d="M201.912 125.043C116.148 125.032 87.1649 184.354 104.767 248.68C122.369 313.007 273.59 324.113 303.62 257.511C314.787 232.742 328.088 125.061 201.912 125.043Z" fill="#FFD952"/>
<mask id="mask0_2_245" style="mask-type:alpha" maskUnits="userSpaceOnUse" x="99" y="125" width="212" height="178">
<path d="M202.028 125.052C116.264 125.041 87.2807 184.363 104.883 248.689C122.484 313.016 273.706 324.122 303.735 257.52C314.903 232.751 328.204 125.07 202.028 125.052Z" fill="#58FC68"/>
</mask>
<g mask="url(#mask0_2_245)">
<rect x="156.214" y="73.8905" width="44.9075" height="71.2927" rx="15.5045" transform="rotate(4.35172 156.214 73.8905)" fill="#FCB358"/>
<rect x="54.1909" y="190.58" width="44.9075" height="71.2927" rx="15.5045" transform="rotate(-35.6411 54.1909 190.58)" fill="#FCB358"/>
<rect x="324.688" y="181.839" width="44.9075" height="71.2927" rx="15.5045" transform="rotate(40.6217 324.688 181.839)" fill="#FCB358"/>
<rect x="231.862" y="77.4993" width="44.9075" height="71.2927" rx="15.5045" transform="rotate(4.35172 231.862 77.4993)" fill="#FCB358"/>
<ellipse cx="200.068" cy="285.173" rx="80.547" ry="53.8122" transform="rotate(4.35172 200.068 285.173)" fill="#FCB358"/>
</g>
<line x1="193.079" y1="244.8" x2="146.8" y2="229.591" stroke="black" stroke-width="0.775225"/>
<line x1="192.155" y1="248.866" x2="154.033" y2="243.902" stroke="black" stroke-width="0.775225"/>
<line y1="-0.387612" x2="48.7144" y2="-0.387612" transform="matrix(0.986317 -0.164858 -0.164858 -0.986317 212.339 245.889)" stroke="black" stroke-width="0.775225"/>
<line y1="-0.387612" x2="38.4434" y2="-0.387612" transform="matrix(0.999748 0.0224297 0.0224297 -0.999748 212.71 250.042)" stroke="black" stroke-width="0.775225"/>
<circle cx="167.922" cy="197.874" r="26.4953" transform="rotate(7.60833 167.922 197.874)" fill="#FF49B6"/>
<ellipse cx="167.921" cy="197.874" rx="8.84427" ry="26.4953" transform="rotate(7.60833 167.921 197.874)" fill="black"/>
<circle cx="247.409" cy="203.395" r="26.4953" transform="rotate(0.252685 247.409 203.395)" fill="#FF49B6"/>
<ellipse cx="246.443" cy="203.446" rx="8.84426" ry="26.4953" transform="rotate(0.252685 246.443 203.446)" fill="black"/>
<circle cx="177.768" cy="188.012" r="5.99038" transform="rotate(25.6217 177.768 188.012)" fill="white"/>
<circle cx="256.167" cy="192.08" r="5.99038" transform="rotate(25.6217 256.167 192.08)" fill="white"/>
<circle cx="168.149" cy="195.358" r="3.59422" transform="rotate(25.6217 168.149 195.358)" fill="white"/>
<circle cx="248.691" cy="201.313" r="3.59422" transform="rotate(25.6217 248.691 201.313)" fill="white"/>
<path fill-rule="evenodd" clip-rule="evenodd" d="M208.323 262.197C206.165 263.371 203.629 263.896 201.008 263.546C199.169 263.3 197.482 262.649 196.027 261.696C197.567 260.947 198.713 259.465 198.957 257.64C199.344 254.747 197.311 252.087 194.417 251.701C193.029 251.515 191.694 251.887 190.638 252.644C190.569 251.801 190.589 250.939 190.706 250.067C191.583 243.499 197.618 238.887 204.185 239.764C210.752 240.641 215.364 246.676 214.487 253.243C214.469 253.381 214.448 253.519 214.425 253.655C213.656 252.951 212.67 252.466 211.558 252.318C208.664 251.931 206.005 253.964 205.618 256.857C205.321 259.088 206.46 261.179 208.323 262.197Z" fill="#FF49B6"/>
<path d="M182.337 269.73L218.564 272.487C217.99 280.037 211.404 285.692 203.854 285.117L194.968 284.441C187.418 283.866 181.763 277.28 182.337 269.73Z" fill="#FF49B6"/>
<mask id="mask1_2_245" style="mask-type:alpha" maskUnits="userSpaceOnUse" x="182" y="269" width="37" height="17">
<path d="M182.337 269.73L218.564 272.487C217.99 280.037 211.404 285.692 203.854 285.117L194.968 284.441C187.418 283.866 181.763 277.28 182.337 269.73Z" fill="#FF49B6"/>
</mask>
<g mask="url(#mask1_2_245)">
<ellipse cx="203.854" cy="285.117" rx="14.3956" ry="9.59709" transform="rotate(4.35172 203.854 285.117)" fill="#FFC8D2"/>
</g>
<path d="M176.754 422.324V420.781H166.207V422.324H170.602V435H172.359V422.324H176.754ZM183.444 435.195C184.472 435.195 185.335 434.99 186.032 434.58C186.735 434.163 187.262 433.688 187.614 433.154L186.51 432.295C186.178 432.725 185.761 433.07 185.26 433.33C184.759 433.59 184.186 433.721 183.541 433.721C183.053 433.721 182.607 433.63 182.204 433.447C181.8 433.265 181.455 433.014 181.168 432.695C180.888 432.396 180.667 432.051 180.504 431.66C180.348 431.27 180.247 430.817 180.202 430.303V430.234H187.75V429.424C187.75 428.688 187.656 428.005 187.467 427.373C187.285 426.742 187.005 426.191 186.627 425.723C186.25 425.26 185.774 424.899 185.202 424.639C184.635 424.372 183.971 424.238 183.209 424.238C182.604 424.238 182.011 424.362 181.432 424.609C180.859 424.857 180.348 425.212 179.899 425.674C179.443 426.143 179.079 426.715 178.805 427.393C178.532 428.063 178.395 428.825 178.395 429.678V430.088C178.395 430.824 178.519 431.504 178.766 432.129C179.013 432.754 179.358 433.294 179.801 433.75C180.244 434.206 180.774 434.561 181.393 434.814C182.018 435.068 182.702 435.195 183.444 435.195ZM183.209 425.723C183.672 425.723 184.069 425.807 184.401 425.977C184.739 426.146 185.019 426.367 185.241 426.641C185.462 426.914 185.635 427.24 185.758 427.617C185.882 427.988 185.944 428.337 185.944 428.662V428.75H180.26C180.332 428.262 180.455 427.832 180.631 427.461C180.814 427.083 181.035 426.764 181.295 426.504C181.556 426.25 181.849 426.058 182.174 425.928C182.5 425.791 182.845 425.723 183.209 425.723ZM190.388 435H192.194V427.422C192.318 427.194 192.461 426.986 192.624 426.797C192.793 426.608 192.975 426.442 193.171 426.299C193.412 426.136 193.675 426.009 193.962 425.918C194.248 425.82 194.557 425.771 194.889 425.771C195.274 425.771 195.612 425.817 195.905 425.908C196.205 425.999 196.458 426.146 196.667 426.348C196.869 426.549 197.022 426.813 197.126 427.139C197.23 427.464 197.282 427.861 197.282 428.33V435H199.089V428.291C199.089 427.588 199.001 426.982 198.825 426.475C198.656 425.96 198.412 425.537 198.093 425.205C197.774 424.873 197.386 424.629 196.93 424.473C196.481 424.316 195.98 424.238 195.427 424.238C195.016 424.245 194.626 424.307 194.255 424.424C193.89 424.535 193.552 424.694 193.239 424.902C193.031 425.039 192.832 425.202 192.643 425.391C192.461 425.573 192.292 425.775 192.136 425.996L192.009 424.434H190.388V435ZM209.021 432.197C209.021 432.367 208.988 432.526 208.923 432.676C208.858 432.826 208.764 432.962 208.64 433.086C208.438 433.288 208.158 433.447 207.8 433.564C207.442 433.675 207.022 433.73 206.54 433.73C206.234 433.73 205.925 433.698 205.612 433.633C205.3 433.568 205.017 433.457 204.763 433.301C204.502 433.145 204.284 432.939 204.109 432.686C203.939 432.432 203.842 432.119 203.816 431.748H202.009C202.009 432.197 202.11 432.63 202.312 433.047C202.52 433.464 202.82 433.828 203.21 434.141C203.594 434.46 204.066 434.717 204.626 434.912C205.186 435.101 205.824 435.195 206.54 435.195C207.165 435.195 207.741 435.12 208.269 434.971C208.796 434.821 209.249 434.609 209.626 434.336C210.004 434.062 210.297 433.734 210.505 433.35C210.72 432.965 210.827 432.539 210.827 432.07C210.827 431.634 210.733 431.25 210.544 430.918C210.362 430.586 210.095 430.293 209.743 430.039C209.392 429.792 208.959 429.58 208.445 429.404C207.93 429.222 207.348 429.062 206.696 428.926C206.202 428.828 205.792 428.727 205.466 428.623C205.147 428.519 204.893 428.402 204.704 428.271C204.509 428.141 204.372 427.995 204.294 427.832C204.216 427.669 204.177 427.484 204.177 427.275C204.177 427.074 204.226 426.878 204.323 426.689C204.421 426.501 204.568 426.335 204.763 426.191C204.952 426.048 205.189 425.934 205.476 425.85C205.769 425.765 206.107 425.723 206.491 425.723C206.862 425.723 207.195 425.775 207.487 425.879C207.787 425.983 208.041 426.12 208.249 426.289C208.458 426.458 208.62 426.654 208.737 426.875C208.855 427.09 208.913 427.311 208.913 427.539H210.72C210.72 427.077 210.619 426.647 210.417 426.25C210.222 425.846 209.942 425.495 209.577 425.195C209.213 424.896 208.77 424.661 208.249 424.492C207.728 424.323 207.142 424.238 206.491 424.238C205.886 424.238 205.329 424.32 204.821 424.482C204.32 424.645 203.887 424.867 203.523 425.146C203.158 425.426 202.875 425.755 202.673 426.133C202.471 426.504 202.37 426.904 202.37 427.334C202.37 427.77 202.468 428.154 202.663 428.486C202.859 428.812 203.135 429.095 203.493 429.336C203.845 429.583 204.268 429.795 204.763 429.971C205.264 430.146 205.818 430.296 206.423 430.42C206.918 430.518 207.331 430.628 207.663 430.752C207.995 430.869 208.262 430.999 208.464 431.143C208.666 431.286 208.809 431.445 208.894 431.621C208.978 431.79 209.021 431.982 209.021 432.197ZM215.418 426.006V420H213.611V435H215.418V427.324C215.548 427.116 215.694 426.927 215.857 426.758C216.026 426.582 216.209 426.429 216.404 426.299C216.651 426.13 216.921 425.999 217.214 425.908C217.507 425.817 217.817 425.771 218.142 425.771C218.539 425.765 218.891 425.82 219.197 425.938C219.503 426.048 219.757 426.217 219.959 426.445C220.147 426.654 220.291 426.917 220.388 427.236C220.486 427.549 220.535 427.913 220.535 428.33V435H222.341V428.35C222.341 427.64 222.254 427.028 222.078 426.514C221.908 425.993 221.664 425.563 221.345 425.225C221.026 424.886 220.639 424.639 220.183 424.482C219.734 424.32 219.233 424.238 218.679 424.238C218.256 424.245 217.856 424.307 217.478 424.424C217.107 424.541 216.765 424.714 216.453 424.941C216.257 425.078 216.072 425.238 215.896 425.42C215.72 425.596 215.561 425.791 215.418 426.006ZM225.506 424.434V426.006H229.1V433.438H225.506V435H234.354V433.438H230.906V424.434H225.506ZM228.865 421.66C228.865 421.953 228.953 422.197 229.129 422.393C229.311 422.588 229.585 422.686 229.949 422.686C230.307 422.686 230.577 422.588 230.76 422.393C230.942 422.197 231.033 421.953 231.033 421.66C231.033 421.497 231.007 421.348 230.955 421.211C230.903 421.074 230.825 420.96 230.721 420.869C230.636 420.785 230.529 420.719 230.398 420.674C230.268 420.622 230.118 420.596 229.949 420.596C229.78 420.596 229.627 420.622 229.49 420.674C229.36 420.719 229.253 420.785 229.168 420.869C229.064 420.967 228.986 421.084 228.934 421.221C228.888 421.357 228.865 421.504 228.865 421.66Z" fill="black"/>
</g>
<defs>
<clipPath id="clip0_2_245">
<rect width="440" height="440" fill="white"/>
</clipPath>
</defs>
</svg>
